<mxfile host="app.diagrams.net" modified="2022-04-01T13:48:27.475Z" agent="5.0 (Windows NT 10.0; Win64; x64) AppleWebKit/537.36 (KHTML, like Gecko) Chrome/99.0.4844.74 Safari/537.36 Edg/99.0.1150.55" etag="CO5OIqTC0CVX5sC-PKkP" version="17.4.0" type="github">
  <diagram id="C5RBs43oDa-KdzZeNtuy" name="Page-1">
    <mxGraphModel dx="1000" dy="666" grid="1" gridSize="10" guides="1" tooltips="1" connect="1" arrows="1" fold="1" page="1" pageScale="1" pageWidth="827" pageHeight="1169" background="#EEEEEE" math="0" shadow="1">
      <root>
        <mxCell id="WIyWlLk6GJQsqaUBKTNV-0" />
        <mxCell id="WIyWlLk6GJQsqaUBKTNV-1" parent="WIyWlLk6GJQsqaUBKTNV-0" />
        <mxCell id="DUVr1aNKuh7jDKaJ2Xz0-36" style="edgeStyle=orthogonalEdgeStyle;curved=0;rounded=1;sketch=0;orthogonalLoop=1;jettySize=auto;html=1;fontColor=#1A1A1A;strokeColor=#182E3E;" edge="1" parent="WIyWlLk6GJQsqaUBKTNV-1" source="DUVr1aNKuh7jDKaJ2Xz0-0" target="DUVr1aNKuh7jDKaJ2Xz0-28">
          <mxGeometry relative="1" as="geometry">
            <Array as="points">
              <mxPoint x="309" y="759" />
              <mxPoint x="309" y="759" />
            </Array>
          </mxGeometry>
        </mxCell>
        <mxCell id="DUVr1aNKuh7jDKaJ2Xz0-37" style="edgeStyle=orthogonalEdgeStyle;curved=0;rounded=1;sketch=0;orthogonalLoop=1;jettySize=auto;html=1;entryX=0.5;entryY=0;entryDx=0;entryDy=0;fontColor=#1A1A1A;strokeColor=#182E3E;" edge="1" parent="WIyWlLk6GJQsqaUBKTNV-1" source="DUVr1aNKuh7jDKaJ2Xz0-0" target="DUVr1aNKuh7jDKaJ2Xz0-24">
          <mxGeometry relative="1" as="geometry">
            <Array as="points">
              <mxPoint x="309" y="709" />
              <mxPoint x="100" y="709" />
            </Array>
          </mxGeometry>
        </mxCell>
        <mxCell id="DUVr1aNKuh7jDKaJ2Xz0-38" style="edgeStyle=orthogonalEdgeStyle;curved=0;rounded=1;sketch=0;orthogonalLoop=1;jettySize=auto;html=1;entryX=0.5;entryY=0;entryDx=0;entryDy=0;fontColor=#1A1A1A;strokeColor=#182E3E;" edge="1" parent="WIyWlLk6GJQsqaUBKTNV-1" source="DUVr1aNKuh7jDKaJ2Xz0-0" target="DUVr1aNKuh7jDKaJ2Xz0-32">
          <mxGeometry relative="1" as="geometry">
            <Array as="points">
              <mxPoint x="309" y="709" />
              <mxPoint x="500" y="709" />
            </Array>
          </mxGeometry>
        </mxCell>
        <mxCell id="DUVr1aNKuh7jDKaJ2Xz0-0" value="Flight" style="swimlane;fontStyle=1;align=center;verticalAlign=top;childLayout=stackLayout;horizontal=1;startSize=26;horizontalStack=0;resizeParent=1;resizeParentMax=0;resizeLast=0;collapsible=1;marginBottom=0;fillColor=#F5AB50;strokeColor=#909090;fontColor=#1A1A1A;rounded=1;" vertex="1" parent="WIyWlLk6GJQsqaUBKTNV-1">
          <mxGeometry x="220" y="440" width="191.5" height="250" as="geometry" />
        </mxCell>
        <mxCell id="DUVr1aNKuh7jDKaJ2Xz0-1" value="+ fCode: int&#xa;- fSchedule: date&#xa;- fAvailableSeats: int&#xa;- fTripulation: int&#xa;- fOriginAirport: String&#xa;- fDestinationAirport: String" style="text;strokeColor=none;fillColor=none;align=left;verticalAlign=top;spacingLeft=4;spacingRight=4;overflow=hidden;rotatable=0;points=[[0,0.5],[1,0.5]];portConstraint=eastwest;fontColor=#1A1A1A;rounded=1;" vertex="1" parent="DUVr1aNKuh7jDKaJ2Xz0-0">
          <mxGeometry y="26" width="191.5" height="114" as="geometry" />
        </mxCell>
        <mxCell id="DUVr1aNKuh7jDKaJ2Xz0-2" value="" style="line;strokeWidth=1;fillColor=none;align=left;verticalAlign=middle;spacingTop=-1;spacingLeft=3;spacingRight=3;rotatable=0;labelPosition=right;points=[];portConstraint=eastwest;strokeColor=#909090;fontColor=#1A1A1A;rounded=1;labelBackgroundColor=#EEEEEE;" vertex="1" parent="DUVr1aNKuh7jDKaJ2Xz0-0">
          <mxGeometry y="140" width="191.5" height="8" as="geometry" />
        </mxCell>
        <mxCell id="DUVr1aNKuh7jDKaJ2Xz0-3" value="+ fGetSchedule(): void&#xa;+fGetTripulation(): void&#xa;+ fSetTripulation(): void&#xa;+ fGetAvailableSeats(): void&#xa;+ fSetAvailableSeats(): void" style="text;strokeColor=none;fillColor=none;align=left;verticalAlign=top;spacingLeft=4;spacingRight=4;overflow=hidden;rotatable=0;points=[[0,0.5],[1,0.5]];portConstraint=eastwest;fontColor=#1A1A1A;rounded=1;" vertex="1" parent="DUVr1aNKuh7jDKaJ2Xz0-0">
          <mxGeometry y="148" width="191.5" height="102" as="geometry" />
        </mxCell>
        <mxCell id="DUVr1aNKuh7jDKaJ2Xz0-4" value="Airport" style="swimlane;fontStyle=1;align=center;verticalAlign=top;childLayout=stackLayout;horizontal=1;startSize=26;horizontalStack=0;resizeParent=1;resizeParentMax=0;resizeLast=0;collapsible=1;marginBottom=0;fillColor=#F5AB50;strokeColor=#909090;fontColor=#1A1A1A;rounded=1;" vertex="1" parent="WIyWlLk6GJQsqaUBKTNV-1">
          <mxGeometry x="60" y="80" width="180" height="124" as="geometry" />
        </mxCell>
        <mxCell id="DUVr1aNKuh7jDKaJ2Xz0-5" value="+ aName: String&#xa;- aCityLocation: String&#xa;- aFlightsPerHour: String " style="text;strokeColor=none;fillColor=none;align=left;verticalAlign=top;spacingLeft=4;spacingRight=4;overflow=hidden;rotatable=0;points=[[0,0.5],[1,0.5]];portConstraint=eastwest;fontColor=#1A1A1A;rounded=1;" vertex="1" parent="DUVr1aNKuh7jDKaJ2Xz0-4">
          <mxGeometry y="26" width="180" height="64" as="geometry" />
        </mxCell>
        <mxCell id="DUVr1aNKuh7jDKaJ2Xz0-6" value="" style="line;strokeWidth=1;fillColor=none;align=left;verticalAlign=middle;spacingTop=-1;spacingLeft=3;spacingRight=3;rotatable=0;labelPosition=right;points=[];portConstraint=eastwest;strokeColor=#909090;fontColor=#1A1A1A;rounded=1;labelBackgroundColor=#EEEEEE;" vertex="1" parent="DUVr1aNKuh7jDKaJ2Xz0-4">
          <mxGeometry y="90" width="180" height="8" as="geometry" />
        </mxCell>
        <mxCell id="DUVr1aNKuh7jDKaJ2Xz0-7" value="+ method(type): type" style="text;strokeColor=none;fillColor=none;align=left;verticalAlign=top;spacingLeft=4;spacingRight=4;overflow=hidden;rotatable=0;points=[[0,0.5],[1,0.5]];portConstraint=eastwest;fontColor=#1A1A1A;rounded=1;" vertex="1" parent="DUVr1aNKuh7jDKaJ2Xz0-4">
          <mxGeometry y="98" width="180" height="26" as="geometry" />
        </mxCell>
        <mxCell id="DUVr1aNKuh7jDKaJ2Xz0-14" value="Passenger" style="swimlane;fontStyle=1;align=center;verticalAlign=top;childLayout=stackLayout;horizontal=1;startSize=26;horizontalStack=0;resizeParent=1;resizeParentMax=0;resizeLast=0;collapsible=1;marginBottom=0;fillColor=#F5AB50;strokeColor=#909090;fontColor=#1A1A1A;rounded=1;" vertex="1" parent="WIyWlLk6GJQsqaUBKTNV-1">
          <mxGeometry x="570" y="80" width="160" height="150" as="geometry" />
        </mxCell>
        <mxCell id="DUVr1aNKuh7jDKaJ2Xz0-15" value="+ pID: int&#xa;+ pName: String" style="text;strokeColor=none;fillColor=none;align=left;verticalAlign=top;spacingLeft=4;spacingRight=4;overflow=hidden;rotatable=0;points=[[0,0.5],[1,0.5]];portConstraint=eastwest;fontColor=#1A1A1A;rounded=1;" vertex="1" parent="DUVr1aNKuh7jDKaJ2Xz0-14">
          <mxGeometry y="26" width="160" height="44" as="geometry" />
        </mxCell>
        <mxCell id="DUVr1aNKuh7jDKaJ2Xz0-16" value="" style="line;strokeWidth=1;fillColor=none;align=left;verticalAlign=middle;spacingTop=-1;spacingLeft=3;spacingRight=3;rotatable=0;labelPosition=right;points=[];portConstraint=eastwest;strokeColor=#909090;fontColor=#1A1A1A;rounded=1;labelBackgroundColor=#EEEEEE;" vertex="1" parent="DUVr1aNKuh7jDKaJ2Xz0-14">
          <mxGeometry y="70" width="160" height="8" as="geometry" />
        </mxCell>
        <mxCell id="DUVr1aNKuh7jDKaJ2Xz0-17" value="+ pBookFlight(??): void&#xa;+ pCancelFlight(??): void&#xa;+ pPayFlight(??): void" style="text;strokeColor=none;fillColor=none;align=left;verticalAlign=top;spacingLeft=4;spacingRight=4;overflow=hidden;rotatable=0;points=[[0,0.5],[1,0.5]];portConstraint=eastwest;fontColor=#1A1A1A;rounded=1;" vertex="1" parent="DUVr1aNKuh7jDKaJ2Xz0-14">
          <mxGeometry y="78" width="160" height="72" as="geometry" />
        </mxCell>
        <mxCell id="DUVr1aNKuh7jDKaJ2Xz0-18" value="Operator" style="swimlane;fontStyle=1;align=center;verticalAlign=top;childLayout=stackLayout;horizontal=1;startSize=26;horizontalStack=0;resizeParent=1;resizeParentMax=0;resizeLast=0;collapsible=1;marginBottom=0;fillColor=#F5AB50;strokeColor=#909090;fontColor=#1A1A1A;rounded=1;" vertex="1" parent="WIyWlLk6GJQsqaUBKTNV-1">
          <mxGeometry x="329" y="80" width="170" height="110" as="geometry" />
        </mxCell>
        <mxCell id="DUVr1aNKuh7jDKaJ2Xz0-19" value="+ oName: String&#xa;+ oNumber: id" style="text;strokeColor=none;fillColor=none;align=left;verticalAlign=top;spacingLeft=4;spacingRight=4;overflow=hidden;rotatable=0;points=[[0,0.5],[1,0.5]];portConstraint=eastwest;fontColor=#1A1A1A;rounded=1;" vertex="1" parent="DUVr1aNKuh7jDKaJ2Xz0-18">
          <mxGeometry y="26" width="170" height="34" as="geometry" />
        </mxCell>
        <mxCell id="DUVr1aNKuh7jDKaJ2Xz0-20" value="" style="line;strokeWidth=1;fillColor=none;align=left;verticalAlign=middle;spacingTop=-1;spacingLeft=3;spacingRight=3;rotatable=0;labelPosition=right;points=[];portConstraint=eastwest;strokeColor=#909090;fontColor=#1A1A1A;rounded=1;labelBackgroundColor=#EEEEEE;" vertex="1" parent="DUVr1aNKuh7jDKaJ2Xz0-18">
          <mxGeometry y="60" width="170" height="8" as="geometry" />
        </mxCell>
        <mxCell id="DUVr1aNKuh7jDKaJ2Xz0-21" value="+ oBookFlight(pID): void&#xa;+ oCancelBooking(pID): void" style="text;strokeColor=none;fillColor=none;align=left;verticalAlign=top;spacingLeft=4;spacingRight=4;overflow=hidden;rotatable=0;points=[[0,0.5],[1,0.5]];portConstraint=eastwest;fontColor=#1A1A1A;rounded=1;" vertex="1" parent="DUVr1aNKuh7jDKaJ2Xz0-18">
          <mxGeometry y="68" width="170" height="42" as="geometry" />
        </mxCell>
        <mxCell id="DUVr1aNKuh7jDKaJ2Xz0-24" value="International" style="swimlane;fontStyle=1;align=center;verticalAlign=top;childLayout=stackLayout;horizontal=1;startSize=26;horizontalStack=0;resizeParent=1;resizeParentMax=0;resizeLast=0;collapsible=1;marginBottom=0;rounded=0;sketch=0;fontColor=#1A1A1A;strokeColor=#909090;fillColor=#F5AB50;" vertex="1" parent="WIyWlLk6GJQsqaUBKTNV-1">
          <mxGeometry x="20" y="789" width="160" height="86" as="geometry" />
        </mxCell>
        <mxCell id="DUVr1aNKuh7jDKaJ2Xz0-25" value="+ field: type" style="text;strokeColor=none;fillColor=none;align=left;verticalAlign=top;spacingLeft=4;spacingRight=4;overflow=hidden;rotatable=0;points=[[0,0.5],[1,0.5]];portConstraint=eastwest;rounded=0;sketch=0;fontColor=#1A1A1A;" vertex="1" parent="DUVr1aNKuh7jDKaJ2Xz0-24">
          <mxGeometry y="26" width="160" height="26" as="geometry" />
        </mxCell>
        <mxCell id="DUVr1aNKuh7jDKaJ2Xz0-26" value="" style="line;strokeWidth=1;fillColor=none;align=left;verticalAlign=middle;spacingTop=-1;spacingLeft=3;spacingRight=3;rotatable=0;labelPosition=right;points=[];portConstraint=eastwest;rounded=0;sketch=0;fontColor=#1A1A1A;" vertex="1" parent="DUVr1aNKuh7jDKaJ2Xz0-24">
          <mxGeometry y="52" width="160" height="8" as="geometry" />
        </mxCell>
        <mxCell id="DUVr1aNKuh7jDKaJ2Xz0-27" value="+ method(type): type" style="text;strokeColor=none;fillColor=none;align=left;verticalAlign=top;spacingLeft=4;spacingRight=4;overflow=hidden;rotatable=0;points=[[0,0.5],[1,0.5]];portConstraint=eastwest;rounded=0;sketch=0;fontColor=#1A1A1A;" vertex="1" parent="DUVr1aNKuh7jDKaJ2Xz0-24">
          <mxGeometry y="60" width="160" height="26" as="geometry" />
        </mxCell>
        <mxCell id="DUVr1aNKuh7jDKaJ2Xz0-28" value="National" style="swimlane;fontStyle=1;align=center;verticalAlign=top;childLayout=stackLayout;horizontal=1;startSize=26;horizontalStack=0;resizeParent=1;resizeParentMax=0;resizeLast=0;collapsible=1;marginBottom=0;rounded=0;sketch=0;fontColor=#1A1A1A;strokeColor=#909090;fillColor=#F5AB50;" vertex="1" parent="WIyWlLk6GJQsqaUBKTNV-1">
          <mxGeometry x="224" y="789" width="160" height="86" as="geometry" />
        </mxCell>
        <mxCell id="DUVr1aNKuh7jDKaJ2Xz0-29" value="+ field: type" style="text;strokeColor=none;fillColor=none;align=left;verticalAlign=top;spacingLeft=4;spacingRight=4;overflow=hidden;rotatable=0;points=[[0,0.5],[1,0.5]];portConstraint=eastwest;rounded=0;sketch=0;fontColor=#1A1A1A;" vertex="1" parent="DUVr1aNKuh7jDKaJ2Xz0-28">
          <mxGeometry y="26" width="160" height="26" as="geometry" />
        </mxCell>
        <mxCell id="DUVr1aNKuh7jDKaJ2Xz0-30" value="" style="line;strokeWidth=1;fillColor=none;align=left;verticalAlign=middle;spacingTop=-1;spacingLeft=3;spacingRight=3;rotatable=0;labelPosition=right;points=[];portConstraint=eastwest;rounded=0;sketch=0;fontColor=#1A1A1A;" vertex="1" parent="DUVr1aNKuh7jDKaJ2Xz0-28">
          <mxGeometry y="52" width="160" height="8" as="geometry" />
        </mxCell>
        <mxCell id="DUVr1aNKuh7jDKaJ2Xz0-31" value="+ method(type): type" style="text;strokeColor=none;fillColor=none;align=left;verticalAlign=top;spacingLeft=4;spacingRight=4;overflow=hidden;rotatable=0;points=[[0,0.5],[1,0.5]];portConstraint=eastwest;rounded=0;sketch=0;fontColor=#1A1A1A;" vertex="1" parent="DUVr1aNKuh7jDKaJ2Xz0-28">
          <mxGeometry y="60" width="160" height="26" as="geometry" />
        </mxCell>
        <mxCell id="DUVr1aNKuh7jDKaJ2Xz0-32" value="Military" style="swimlane;fontStyle=1;align=center;verticalAlign=top;childLayout=stackLayout;horizontal=1;startSize=26;horizontalStack=0;resizeParent=1;resizeParentMax=0;resizeLast=0;collapsible=1;marginBottom=0;rounded=0;sketch=0;fontColor=#1A1A1A;strokeColor=#909090;fillColor=#F5AB50;" vertex="1" parent="WIyWlLk6GJQsqaUBKTNV-1">
          <mxGeometry x="420" y="789" width="160" height="86" as="geometry" />
        </mxCell>
        <mxCell id="DUVr1aNKuh7jDKaJ2Xz0-33" value="+ field: type" style="text;strokeColor=none;fillColor=none;align=left;verticalAlign=top;spacingLeft=4;spacingRight=4;overflow=hidden;rotatable=0;points=[[0,0.5],[1,0.5]];portConstraint=eastwest;rounded=0;sketch=0;fontColor=#1A1A1A;" vertex="1" parent="DUVr1aNKuh7jDKaJ2Xz0-32">
          <mxGeometry y="26" width="160" height="26" as="geometry" />
        </mxCell>
        <mxCell id="DUVr1aNKuh7jDKaJ2Xz0-34" value="" style="line;strokeWidth=1;fillColor=none;align=left;verticalAlign=middle;spacingTop=-1;spacingLeft=3;spacingRight=3;rotatable=0;labelPosition=right;points=[];portConstraint=eastwest;rounded=0;sketch=0;fontColor=#1A1A1A;" vertex="1" parent="DUVr1aNKuh7jDKaJ2Xz0-32">
          <mxGeometry y="52" width="160" height="8" as="geometry" />
        </mxCell>
        <mxCell id="DUVr1aNKuh7jDKaJ2Xz0-35" value="+ method(type): type" style="text;strokeColor=none;fillColor=none;align=left;verticalAlign=top;spacingLeft=4;spacingRight=4;overflow=hidden;rotatable=0;points=[[0,0.5],[1,0.5]];portConstraint=eastwest;rounded=0;sketch=0;fontColor=#1A1A1A;" vertex="1" parent="DUVr1aNKuh7jDKaJ2Xz0-32">
          <mxGeometry y="60" width="160" height="26" as="geometry" />
        </mxCell>
      </root>
    </mxGraphModel>
  </diagram>
</mxfile>
